<svg xmlns="http://www.w3.org/2000/svg" xmlns:xlink="http://www.w3.org/1999/xlink" width="2048" zoomAndPan="magnify" viewBox="0 0 1536 1535.999932" height="2048" preserveAspectRatio="xMidYMid meet" version="1.0"><path fill="#000000" d="M 426.957031 485.855469 C 426.957031 598.328125 427.089844 690.484375 427.253906 690.648438 C 427.546875 690.941406 484.550781 633.921875 601.832031 516.011719 C 781.761719 335.121094 773.222656 343.460938 795.597656 326.726562 C 809.253906 316.511719 822.078125 308.625 837.113281 301.199219 C 850.492188 294.59375 857.359375 291.824219 869.082031 288.316406 C 876.488281 286.101562 876.804688 285.980469 876.382812 285.597656 C 876.234375 285.464844 870.894531 284.457031 864.515625 283.359375 L 852.914062 281.363281 L 426.957031 281.363281 Z M 880.273438 291.367188 C 851.382812 303.261719 824.640625 319.414062 800.101562 339.796875 C 782.53125 354.390625 788.527344 348.238281 664.492188 478.929688 C 634.621094 510.402344 591.878906 555.429688 569.507812 578.992188 C 547.136719 602.550781 505.914062 645.980469 477.894531 675.5 L 426.957031 729.175781 L 426.957031 732.460938 C 426.957031 734.265625 427.144531 735.933594 427.371094 736.164062 C 427.601562 736.390625 432.710938 731.738281 438.722656 725.824219 C 444.734375 719.910156 472.8125 692.652344 501.121094 665.253906 C 528.195312 639.046875 555.261719 612.835938 582.324219 586.617188 C 753.3125 420.890625 805.363281 370.566406 810.261719 366.242188 C 838.851562 341 875.796875 321.773438 913.074219 312.730469 C 921.871094 310.597656 938.710938 307.582031 941.925781 307.566406 C 943.007812 307.5625 944.316406 307.285156 944.839844 306.957031 C 946.945312 305.625 929.132812 299.058594 910.960938 294.464844 C 896.90625 290.914062 888.5625 289.03125 887.089844 289.082031 C 886.328125 289.109375 883.261719 290.136719 880.273438 291.367188 M 943.570312 314.675781 C 907.820312 317.792969 872.730469 331.664062 838.109375 356.367188 C 834.070312 359.25 828.875 363.472656 826.554688 365.761719 C 824.238281 368.046875 755.03125 439.113281 672.761719 523.683594 C 590.492188 608.257812 501.863281 699.351562 475.808594 726.117188 C 428.804688 774.402344 428.429688 774.808594 428.011719 777.839844 C 427.785156 779.519531 427.59375 781.457031 427.59375 782.144531 C 427.59375 783.011719 432.355469 778.8125 443.097656 768.46875 C 451.625 760.253906 493.703125 719.875 536.605469 678.730469 C 573.269531 643.578125 609.929688 608.410156 646.578125 573.238281 C 664.164062 556.359375 703.003906 519.097656 732.886719 490.4375 C 759.511719 464.917969 786.125 439.378906 812.722656 413.828125 C 842.597656 385.125 845.113281 382.917969 856.933594 375.023438 C 885.882812 355.691406 918.292969 345.066406 955.648438 342.664062 C 969.65625 341.761719 986.773438 342.546875 999.707031 344.679688 C 1003.820312 345.359375 1007.75 345.917969 1008.441406 345.925781 C 1011.125 345.953125 984.929688 327.730469 969.835938 319.070312 L 960.949219 313.972656 L 955.296875 314.058594 C 952.1875 314.105469 946.910156 314.386719 943.570312 314.675781 M 961.152344 348.882812 C 936.453125 350.78125 920.734375 354.167969 901.691406 361.707031 C 886.472656 367.730469 871.304688 376.507812 858.996094 386.417969 C 855.910156 388.902344 811.171875 433.535156 759.582031 485.601562 C 693.632812 552.074219 627.949219 618.367188 562.539062 684.488281 C 505.753906 741.808594 452.019531 796.042969 443.132812 805.011719 L 426.96875 821.316406 L 426.960938 825.042969 C 426.957031 827.097656 427.195312 828.679688 427.484375 828.5625 C 427.914062 828.390625 539.039062 723.785156 692.957031 578.675781 C 718.894531 554.222656 747.089844 527.652344 820.113281 458.847656 C 848.390625 432.203125 873.039062 409.285156 874.890625 407.917969 C 891.984375 395.292969 916.96875 384.800781 939.09375 380.960938 C 950.070312 379.054688 976.019531 378.898438 986.726562 380.671875 C 1020.160156 386.210938 1049.476562 400.804688 1073.523438 423.871094 C 1076.601562 426.824219 1079.117188 428.945312 1079.117188 428.585938 C 1079.117188 427.476562 1073.460938 417.585938 1068.453125 409.945312 C 1057.902344 393.84375 1046.6875 380.523438 1030.835938 365.269531 C 1022.085938 356.851562 1020.246094 355.375 1017.457031 354.546875 C 1012.851562 353.175781 998.039062 350.53125 990.882812 349.800781 C 983.816406 349.082031 965.796875 348.523438 961.152344 348.882812 M 961.472656 388.140625 C 934.15625 389.78125 905.601562 399.988281 885.1875 415.410156 C 879.808594 419.472656 903.902344 395.621094 542.996094 754.183594 C 488.136719 808.6875 440.015625 856.433594 436.0625 860.28125 C 432.109375 864.128906 428.875 867.507812 428.875 867.792969 C 428.875 868.511719 844.976562 868.410156 857.253906 867.683594 C 902.839844 864.996094 951.023438 846.136719 994.914062 813.800781 C 1033.878906 785.09375 1067.019531 746.625 1086.835938 707.09375 C 1120.5 639.9375 1127.550781 554.421875 1104.992188 486.832031 C 1096.332031 460.890625 1087.730469 446.046875 1072.421875 430.625 C 1050.863281 408.914062 1025.5 395.128906 997.855469 390.101562 C 991.449219 388.9375 973.84375 387.359375 970.105469 387.613281 C 969.402344 387.660156 965.515625 387.898438 961.472656 388.140625 M 19.671875 1130.4375 L 19.671875 1260.246094 L 98.324219 1260.246094 C 184.351562 1260.246094 181.113281 1260.371094 196.363281 1256.429688 C 230.828125 1247.519531 257.140625 1226.238281 274.65625 1193.109375 C 297.84375 1149.257812 296.511719 1099.191406 271.136719 1060.761719 C 252.496094 1032.523438 224.308594 1012.054688 191.257812 1002.753906 L 184.953125 1000.980469 L 102.3125 1000.804688 L 19.671875 1000.632812 Z M 473.859375 1003.691406 C 470.242188 1008.03125 403.738281 1086.980469 325.878906 1179.363281 C 289.128906 1222.96875 258.839844 1259.007812 258.574219 1259.445312 C 258.183594 1260.082031 265.058594 1260.238281 292.167969 1260.207031 L 326.253906 1260.167969 L 341.277344 1242.742188 C 349.542969 1233.160156 384.5 1192.738281 418.964844 1152.921875 L 481.621094 1080.519531 L 482.261719 1260.566406 L 534.691406 1260.566406 L 534.691406 1000.980469 L 505.542969 1000.8125 L 476.398438 1000.648438 Z M 582.109375 1001.085938 C 581.875 1001.320312 581.683594 1059.726562 581.683594 1130.878906 L 581.683594 1260.246094 L 632.191406 1260.246094 L 632.351562 1168.253906 L 632.515625 1076.265625 L 711.722656 1168.675781 L 790.933594 1261.082031 L 805.335938 1260.664062 C 813.257812 1260.433594 826.742188 1260.246094 835.300781 1260.246094 L 850.863281 1260.246094 L 850.542969 1000.980469 L 824.488281 1000.8125 L 798.4375 1000.644531 L 798.273438 1091.078125 L 798.113281 1181.511719 L 764.554688 1143.035156 C 746.101562 1121.871094 710.609375 1081.179688 685.6875 1052.609375 L 640.375 1000.660156 L 611.457031 1000.660156 C 595.550781 1000.660156 582.34375 1000.851562 582.109375 1001.085938 M 896.683594 1001.085938 C 896.449219 1001.320312 896.257812 1059.726562 896.257812 1130.878906 L 896.257812 1260.246094 L 946.765625 1260.246094 L 946.765625 1000.660156 L 921.9375 1000.660156 C 908.28125 1000.660156 896.917969 1000.851562 896.683594 1001.085938 M 993.441406 1131.09375 L 993.441406 1260.886719 L 1228.730469 1260.886719 L 1228.730469 1211.652344 L 1046.507812 1211.652344 L 1046.507812 1158.578125 L 1137.460938 1158.589844 L 1228.410156 1158.601562 L 1228.410156 1107.753906 L 1137.460938 1107.59375 L 1046.507812 1107.429688 L 1046.507812 1053.089844 L 1230.011719 1053.089844 L 1230.011719 1001.296875 L 993.441406 1001.296875 Z M 1275.0625 1002.097656 C 1274.894531 1002.539062 1274.832031 1060.871094 1274.921875 1131.730469 L 1275.085938 1260.566406 L 1392.25 1260.726562 L 1509.417969 1260.886719 L 1509.417969 1215.488281 L 1328.472656 1215.488281 L 1328.472656 1001.296875 L 1301.921875 1001.296875 C 1281.265625 1001.296875 1275.296875 1001.476562 1275.0625 1002.097656 M 74.339844 1129.8125 L 74.339844 1206.539062 L 120.132812 1206.539062 C 169.570312 1206.539062 170.351562 1206.492188 182.375 1203.007812 C 200.578125 1197.734375 215.4375 1187.21875 224.765625 1173.007812 C 230.375 1164.464844 234.164062 1153.75 236.039062 1141.128906 C 238.507812 1124.5 236.363281 1110.554688 229.039062 1095.605469 C 219.933594 1077.027344 204.144531 1063.027344 185.082031 1056.628906 C 175.132812 1053.289062 171.660156 1053.097656 121.015625 1053.09375 L 74.339844 1053.089844 Z M 74.339844 1129.8125 " fill-opacity="1" fill-rule="evenodd"/></svg>